<svg xmlns="http://www.w3.org/2000/svg" xmlns:xlink="http://www.w3.org/1999/xlink" width="500" zoomAndPan="magnify" viewBox="0 0 375 374.999991" height="500" preserveAspectRatio="xMidYMid meet" version="1.0"><defs><g/></defs><rect x="-37.5" width="450" fill="#ffffff" y="-37.499999" height="449.999989" fill-opacity="1"/><rect x="-37.5" width="450" fill="#ffffff" y="-37.499999" height="449.999989" fill-opacity="1"/><g fill="#000000" fill-opacity="1"><g transform="translate(136.511714, 214.031566)"><g><path d="M 23.265625 -103.9375 L 24.90625 -104.4375 Z M 28.875 -2.46875 L 28.703125 -2.3125 Z M 15.515625 -98 C 13.085938 -97.78125 10.609375 -97.5625 8.078125 -97.34375 C 5.554688 -97.125 2.921875 -96.90625 0.171875 -96.6875 C -0.816406 -96.6875 -1.503906 -97.066406 -1.890625 -97.828125 C -2.273438 -98.597656 -2.332031 -99.367188 -2.0625 -100.140625 C -1.789062 -100.910156 -1.160156 -101.296875 -0.171875 -101.296875 C 5.878906 -101.628906 11.4375 -102.125 16.5 -102.78125 C 16.832031 -103.664062 17.242188 -104.460938 17.734375 -105.171875 C 18.234375 -105.890625 18.753906 -106.523438 19.296875 -107.078125 C 21.171875 -108.617188 23.484375 -109.28125 26.234375 -109.0625 L 26.890625 -109.0625 C 27.222656 -109.164062 27.550781 -109.21875 27.875 -109.21875 C 28.976562 -109.21875 29.914062 -109 30.6875 -108.5625 C 32.226562 -107.675781 33.050781 -106.570312 33.15625 -105.25 C 33.269531 -103.9375 32.613281 -102.785156 31.1875 -101.796875 C 29.75 -101.023438 27.160156 -100.203125 23.421875 -99.328125 L 20.125 -98.65625 C 20.019531 -98.21875 19.96875 -97.253906 19.96875 -95.765625 C 19.96875 -94.285156 19.96875 -92.28125 19.96875 -89.75 C 19.96875 -88.101562 20.078125 -84.992188 20.296875 -80.421875 C 20.515625 -75.859375 20.84375 -69.945312 21.28125 -62.6875 L 22.265625 -44.046875 C 22.492188 -38.003906 22.6875 -32.753906 22.84375 -28.296875 C 23.007812 -23.835938 23.039062 -20.125 22.9375 -17.15625 C 22.9375 -15.175781 22.90625 -13.414062 22.84375 -11.875 C 22.789062 -10.332031 22.710938 -8.957031 22.609375 -7.75 L 22.109375 -4.625 L 21.609375 -2.96875 L 26.890625 -2.96875 C 27.441406 -2.863281 27.910156 -2.8125 28.296875 -2.8125 C 28.679688 -2.8125 29.039062 -2.8125 29.375 -2.8125 C 29.8125 -2.8125 30.082031 -2.753906 30.1875 -2.640625 L 31.515625 -2.140625 C 32.285156 -1.367188 32.445312 -0.4375 32 0.65625 C 31.894531 0.988281 31.515625 1.375 30.859375 1.8125 L 28.875 2.640625 C 30.082031 3.191406 30.410156 4.070312 29.859375 5.28125 C 29.421875 6.707031 28.488281 7.203125 27.0625 6.765625 C 25.625 6.328125 24.460938 5.914062 23.578125 5.53125 C 22.703125 5.144531 22.046875 4.84375 21.609375 4.625 C 21.171875 4.507812 20.84375 4.234375 20.625 3.796875 C 20.1875 3.140625 20.019531 2.425781 20.125 1.65625 C 19.46875 1.65625 18.476562 1.679688 17.15625 1.734375 C 15.832031 1.785156 14.84375 1.8125 14.1875 1.8125 C 12.425781 1.925781 10.859375 1.953125 9.484375 1.890625 C 8.109375 1.835938 6.816406 1.757812 5.609375 1.65625 L 4.125 1.65625 C 2.363281 1.539062 1.375 0.601562 1.15625 -1.15625 C 0.9375 -2.363281 1.488281 -3.410156 2.8125 -4.296875 C 3.351562 -4.617188 4.175781 -4.945312 5.28125 -5.28125 C 6.050781 -5.5 6.929688 -5.632812 7.921875 -5.6875 C 8.910156 -5.75 10.007812 -5.832031 11.21875 -5.9375 L 17.8125 -5.9375 C 17.925781 -6.269531 17.984375 -6.628906 17.984375 -7.015625 C 17.984375 -7.398438 17.984375 -7.8125 17.984375 -8.25 C 18.085938 -9.351562 18.164062 -10.671875 18.21875 -12.203125 C 18.28125 -13.742188 18.3125 -15.453125 18.3125 -17.328125 C 18.425781 -20.179688 18.398438 -23.835938 18.234375 -28.296875 C 18.066406 -32.753906 17.875 -37.953125 17.65625 -43.890625 L 16.65625 -62.53125 C 16.21875 -69.789062 15.890625 -75.726562 15.671875 -80.34375 C 15.453125 -84.96875 15.34375 -88.101562 15.34375 -89.75 C 15.34375 -92.164062 15.34375 -94.035156 15.34375 -95.359375 C 15.34375 -96.679688 15.398438 -97.5625 15.515625 -98 Z M 15.515625 -98 "/></g></g></g><g fill="#000000" fill-opacity="1"><g transform="translate(171.1568, 214.031566)"><g><path d="M 15.84375 -60.875 L 12.703125 -76.875 C 12.585938 -77.320312 12.445312 -77.847656 12.28125 -78.453125 C 12.125 -79.054688 11.9375 -79.742188 11.71875 -80.515625 L 11.71875 -69.125 C 11.71875 -51.3125 11.550781 -39.160156 11.21875 -32.671875 C 11.21875 -32.222656 11.1875 -31.476562 11.125 -30.4375 C 11.070312 -29.394531 10.992188 -28.046875 10.890625 -26.390625 C 10.773438 -24.742188 10.71875 -23.285156 10.71875 -22.015625 C 10.71875 -20.753906 10.664062 -19.6875 10.5625 -18.8125 C 10.445312 -17.707031 10.304688 -16.109375 10.140625 -14.015625 C 9.984375 -11.929688 9.90625 -10.503906 9.90625 -9.734375 C 9.90625 -9.617188 9.90625 -9.367188 9.90625 -8.984375 C 9.90625 -8.609375 9.847656 -8.085938 9.734375 -7.421875 L 9.734375 -5.9375 C 9.617188 -5.832031 9.5625 -5.722656 9.5625 -5.609375 C 9.34375 -4.953125 8.796875 -4.515625 7.921875 -4.296875 C 7.253906 -4.179688 6.59375 -4.34375 5.9375 -4.78125 L 5.4375 -5.4375 L 5.109375 -6.109375 L 5.109375 -6.765625 C 5.109375 -9.734375 5.441406 -27.609375 6.109375 -60.390625 C 6.109375 -62.035156 6.269531 -65.882812 6.59375 -71.9375 C 6.59375 -72.039062 6.617188 -72.863281 6.671875 -74.40625 C 6.734375 -75.945312 6.816406 -77.269531 6.921875 -78.375 C 6.921875 -78.8125 6.921875 -79.222656 6.921875 -79.609375 C 6.921875 -79.992188 6.976562 -80.40625 7.09375 -80.84375 C 7.207031 -85.570312 7.34375 -90 7.5 -94.125 C 7.664062 -98.25 7.914062 -102.015625 8.25 -105.421875 C 8.46875 -106.960938 9.289062 -107.675781 10.71875 -107.5625 C 12.15625 -107.457031 12.875 -106.632812 12.875 -105.09375 C 12.425781 -100.363281 12.09375 -95.25 11.875 -89.75 C 12.539062 -89.644531 13.09375 -89.257812 13.53125 -88.59375 C 14.851562 -86.945312 16.0625 -83.375 17.15625 -77.875 C 17.59375 -76.332031 18.054688 -74.210938 18.546875 -71.515625 C 19.046875 -68.828125 19.679688 -65.554688 20.453125 -61.703125 L 23.421875 -46.53125 C 23.640625 -45.425781 23.882812 -44.515625 24.15625 -43.796875 C 24.4375 -43.085938 24.632812 -42.457031 24.75 -41.90625 C 24.851562 -41.789062 24.90625 -41.625 24.90625 -41.40625 C 24.90625 -41.40625 24.796875 -41.296875 24.578125 -41.078125 C 24.796875 -41.078125 24.960938 -41.132812 25.078125 -41.25 C 25.078125 -41.03125 25.132812 -40.863281 25.25 -40.75 L 25.078125 -41.25 L 25.90625 -42.40625 C 26.34375 -43.0625 26.78125 -43.9375 27.21875 -45.03125 C 27.65625 -46.132812 28.097656 -47.457031 28.546875 -49 C 28.867188 -50.207031 29.25 -51.742188 29.6875 -53.609375 C 30.132812 -55.484375 30.632812 -57.6875 31.1875 -60.21875 L 33.15625 -69.296875 C 33.601562 -71.160156 34.046875 -72.832031 34.484375 -74.3125 C 34.921875 -75.800781 35.359375 -77.039062 35.796875 -78.03125 C 37.003906 -81.226562 38.488281 -83.046875 40.25 -83.484375 C 42.675781 -84.140625 44.929688 -82.929688 47.015625 -79.859375 C 48.554688 -77.546875 50.425781 -73.421875 52.625 -67.484375 C 53.394531 -65.390625 54.109375 -63.320312 54.765625 -61.28125 C 55.429688 -59.25 55.984375 -57.300781 56.421875 -55.4375 C 56.972656 -52.789062 57.742188 -48.9375 58.734375 -43.875 C 59.722656 -38.820312 60.820312 -32.554688 62.03125 -25.078125 L 63.03125 -18.484375 L 63.84375 -13.859375 L 64.34375 -10.5625 C 64.5625 -9.132812 64.671875 -8.304688 64.671875 -8.078125 C 64.671875 -7.859375 64.726562 -7.035156 64.84375 -5.609375 C 64.945312 -4.953125 65 -4.375 65 -3.875 C 65 -3.382812 65 -2.914062 65 -2.46875 C 65 -1.695312 65.082031 -0.1875 65.25 2.0625 C 65.414062 4.3125 65.550781 6.539062 65.65625 8.75 C 65.65625 9.738281 65.269531 10.425781 64.5 10.8125 C 63.738281 11.195312 62.972656 11.25 62.203125 10.96875 C 61.429688 10.695312 61.046875 10.066406 61.046875 9.078125 L 60.71875 1.8125 C 60.601562 -0.5 60.488281 -2.203125 60.375 -3.296875 C 60.269531 -4.398438 60.21875 -5.335938 60.21875 -6.109375 C 60.21875 -6.546875 60.1875 -7.007812 60.125 -7.5 C 60.070312 -8 59.992188 -8.523438 59.890625 -9.078125 C 59.671875 -10.285156 59.503906 -11.273438 59.390625 -12.046875 C 59.285156 -12.816406 59.007812 -14.519531 58.5625 -17.15625 L 57.421875 -24.421875 C 56.316406 -31.785156 55.296875 -37.941406 54.359375 -42.890625 C 53.421875 -47.835938 52.570312 -51.6875 51.8125 -54.4375 C 51.039062 -58.070312 49.882812 -61.867188 48.34375 -65.828125 C 46.46875 -71.109375 44.707031 -74.90625 43.0625 -77.21875 C 42.507812 -78.3125 42.015625 -78.914062 41.578125 -79.03125 C 41.023438 -78.476562 40.53125 -77.597656 40.09375 -76.390625 C 39.320312 -74.734375 38.492188 -72.035156 37.609375 -68.296875 L 35.640625 -59.234375 C 35.085938 -56.585938 34.585938 -54.300781 34.140625 -52.375 C 33.703125 -50.457031 33.320312 -48.894531 33 -47.6875 C 32.007812 -44.382812 30.910156 -41.742188 29.703125 -39.765625 C 27.941406 -37.015625 25.796875 -36.023438 23.265625 -36.796875 C 22.492188 -36.898438 21.832031 -37.445312 21.28125 -38.4375 L 20.453125 -40.25 C 20.015625 -41.351562 19.519531 -43.113281 18.96875 -45.53125 C 18.644531 -46.96875 18.234375 -48.945312 17.734375 -51.46875 C 17.242188 -54 16.613281 -57.132812 15.84375 -60.875 Z M 25.078125 -41.25 L 24.90625 -41.40625 C 25.019531 -41.40625 25.078125 -41.351562 25.078125 -41.25 Z M 25.078125 -41.25 "/></g></g></g><g fill="#000000" fill-opacity="1"><g transform="translate(111.210935, 252.214011)"><g><path d="M 1.09375 -8.671875 L 2.375 -8.671875 L 2.375 0 L 1.09375 0 Z M 1.09375 -8.671875 "/></g></g></g><g fill="#000000" fill-opacity="1"><g transform="translate(114.687569, 252.214011)"><g><path d="M 1.109375 -8.671875 L 2.40625 -8.671875 L 2.40625 -1.125 L 6.40625 -1.125 L 6.40625 0 L 1.09375 0 Z M 1.109375 -8.671875 "/></g></g></g><g fill="#000000" fill-opacity="1"><g transform="translate(121.610867, 252.214011)"><g><path d="M 1.109375 -8.671875 L 2.40625 -8.671875 L 2.40625 -1.125 L 6.40625 -1.125 L 6.40625 0 L 1.09375 0 Z M 1.109375 -8.671875 "/></g></g></g><g fill="#000000" fill-opacity="1"><g transform="translate(128.258339, 252.214011)"><g><path d="M 7.609375 -3.078125 C 7.609375 -2.398438 7.492188 -1.820312 7.265625 -1.34375 C 7.046875 -0.875 6.695312 -0.507812 6.21875 -0.25 C 5.738281 0 5.113281 0.125 4.34375 0.125 C 3.570312 0.125 2.945312 0 2.46875 -0.25 C 1.988281 -0.507812 1.640625 -0.882812 1.421875 -1.375 C 1.203125 -1.875 1.09375 -2.476562 1.09375 -3.1875 L 1.09375 -8.671875 L 2.421875 -8.671875 L 2.421875 -3.03125 C 2.421875 -2.332031 2.585938 -1.816406 2.921875 -1.484375 C 3.265625 -1.148438 3.738281 -0.984375 4.34375 -0.984375 C 4.75 -0.984375 5.097656 -1.054688 5.390625 -1.203125 C 5.691406 -1.347656 5.921875 -1.570312 6.078125 -1.875 C 6.234375 -2.175781 6.3125 -2.5625 6.3125 -3.03125 L 6.3125 -8.671875 L 7.609375 -8.671875 Z M 7.609375 -3.078125 "/></g></g></g><g fill="#000000" fill-opacity="1"><g transform="translate(136.734142, 252.214011)"><g><path d="M 4.125 0.125 C 3.71875 0.125 3.316406 0.0703125 2.921875 -0.03125 C 2.523438 -0.132812 2.164062 -0.289062 1.84375 -0.5 C 1.53125 -0.707031 1.269531 -0.960938 1.0625 -1.265625 C 0.851562 -1.578125 0.722656 -1.941406 0.671875 -2.359375 L 2 -2.359375 C 2.070312 -2.046875 2.207031 -1.78125 2.40625 -1.5625 C 2.613281 -1.351562 2.863281 -1.191406 3.15625 -1.078125 C 3.445312 -0.972656 3.769531 -0.921875 4.125 -0.921875 C 4.507812 -0.921875 4.851562 -0.972656 5.15625 -1.078125 C 5.457031 -1.179688 5.695312 -1.332031 5.875 -1.53125 C 6.0625 -1.738281 6.15625 -1.976562 6.15625 -2.25 C 6.15625 -2.507812 6.09375 -2.722656 5.96875 -2.890625 C 5.851562 -3.066406 5.679688 -3.210938 5.453125 -3.328125 C 5.234375 -3.453125 4.96875 -3.550781 4.65625 -3.625 L 3.015625 -3.984375 C 2.367188 -4.117188 1.859375 -4.367188 1.484375 -4.734375 C 1.117188 -5.109375 0.9375 -5.601562 0.9375 -6.21875 C 0.925781 -6.726562 1.054688 -7.175781 1.328125 -7.5625 C 1.609375 -7.945312 1.984375 -8.242188 2.453125 -8.453125 C 2.929688 -8.671875 3.476562 -8.78125 4.09375 -8.78125 C 4.789062 -8.78125 5.378906 -8.660156 5.859375 -8.421875 C 6.347656 -8.191406 6.71875 -7.882812 6.96875 -7.5 C 7.21875 -7.113281 7.34375 -6.691406 7.34375 -6.234375 L 6.03125 -6.234375 C 6 -6.609375 5.890625 -6.898438 5.703125 -7.109375 C 5.523438 -7.328125 5.296875 -7.484375 5.015625 -7.578125 C 4.734375 -7.671875 4.425781 -7.71875 4.09375 -7.71875 C 3.851562 -7.71875 3.625 -7.6875 3.40625 -7.625 C 3.1875 -7.570312 2.992188 -7.484375 2.828125 -7.359375 C 2.660156 -7.242188 2.523438 -7.101562 2.421875 -6.9375 C 2.328125 -6.769531 2.28125 -6.578125 2.28125 -6.359375 C 2.28125 -6.054688 2.378906 -5.8125 2.578125 -5.625 C 2.773438 -5.445312 3.144531 -5.289062 3.6875 -5.15625 L 5.296875 -4.796875 C 5.753906 -4.703125 6.125 -4.5625 6.40625 -4.375 C 6.6875 -4.1875 6.90625 -3.972656 7.0625 -3.734375 C 7.21875 -3.503906 7.320312 -3.257812 7.375 -3 C 7.425781 -2.75 7.453125 -2.507812 7.453125 -2.28125 C 7.453125 -1.832031 7.316406 -1.425781 7.046875 -1.0625 C 6.785156 -0.695312 6.40625 -0.40625 5.90625 -0.1875 C 5.414062 0.0195312 4.820312 0.125 4.125 0.125 Z M 4.125 0.125 "/></g></g></g><g fill="#000000" fill-opacity="1"><g transform="translate(144.72436, 252.214011)"><g><path d="M 0.265625 -7.5 L 0.265625 -8.671875 L 6.9375 -8.671875 L 6.9375 -7.5 L 4.3125 -7.5 L 4.3125 0 L 3.015625 0 L 3.015625 -7.5 Z M 0.265625 -7.5 "/></g></g></g><g fill="#000000" fill-opacity="1"><g transform="translate(151.91141, 252.214011)"><g><path d="M 7.453125 0 L 6.09375 0 L 4.5625 -3.625 L 2.375 -3.625 L 2.375 0 L 1.09375 0 L 1.09375 -8.671875 L 4.546875 -8.671875 C 5.191406 -8.671875 5.722656 -8.570312 6.140625 -8.375 C 6.566406 -8.175781 6.882812 -7.894531 7.09375 -7.53125 C 7.300781 -7.164062 7.40625 -6.738281 7.40625 -6.25 C 7.40625 -5.78125 7.328125 -5.390625 7.171875 -5.078125 C 7.015625 -4.765625 6.8125 -4.507812 6.5625 -4.3125 C 6.3125 -4.113281 6.046875 -3.960938 5.765625 -3.859375 Z M 4.1875 -4.671875 C 4.789062 -4.671875 5.257812 -4.800781 5.59375 -5.0625 C 5.925781 -5.320312 6.09375 -5.695312 6.09375 -6.1875 C 6.09375 -6.664062 5.941406 -7.03125 5.640625 -7.28125 C 5.335938 -7.53125 4.929688 -7.65625 4.421875 -7.65625 L 2.375 -7.65625 L 2.375 -4.671875 Z M 4.1875 -4.671875 "/></g></g></g><g fill="#000000" fill-opacity="1"><g transform="translate(160.135477, 252.214011)"><g><path d="M 0.453125 0 L 3.578125 -8.671875 L 5 -8.671875 L 8.125 0 L 6.828125 0 L 6.015625 -2.28125 L 2.59375 -2.28125 L 1.75 0 Z M 2.890625 -3.4375 L 5.6875 -3.4375 L 4.296875 -7.421875 Z M 2.890625 -3.4375 "/></g></g></g><g fill="#000000" fill-opacity="1"><g transform="translate(167.831731, 252.214011)"><g><path d="M 0.265625 -7.5 L 0.265625 -8.671875 L 6.9375 -8.671875 L 6.9375 -7.5 L 4.3125 -7.5 L 4.3125 0 L 3.015625 0 L 3.015625 -7.5 Z M 0.265625 -7.5 "/></g></g></g><g fill="#000000" fill-opacity="1"><g transform="translate(175.01878, 252.214011)"><g><path d="M 1.09375 -8.671875 L 2.375 -8.671875 L 2.375 0 L 1.09375 0 Z M 1.09375 -8.671875 "/></g></g></g><g fill="#000000" fill-opacity="1"><g transform="translate(178.495415, 252.214011)"><g><path d="M 4.46875 0.125 C 3.675781 0.125 2.992188 -0.0507812 2.421875 -0.40625 C 1.847656 -0.757812 1.40625 -1.265625 1.09375 -1.921875 C 0.78125 -2.585938 0.625 -3.382812 0.625 -4.3125 C 0.625 -5.257812 0.78125 -6.066406 1.09375 -6.734375 C 1.414062 -7.398438 1.863281 -7.910156 2.4375 -8.265625 C 3.007812 -8.617188 3.6875 -8.796875 4.46875 -8.796875 C 5.238281 -8.796875 5.910156 -8.617188 6.484375 -8.265625 C 7.054688 -7.910156 7.492188 -7.398438 7.796875 -6.734375 C 8.109375 -6.066406 8.265625 -5.257812 8.265625 -4.3125 C 8.265625 -3.382812 8.109375 -2.585938 7.796875 -1.921875 C 7.492188 -1.265625 7.054688 -0.757812 6.484375 -0.40625 C 5.921875 -0.0507812 5.25 0.125 4.46875 0.125 Z M 4.46875 -0.984375 C 4.96875 -0.984375 5.394531 -1.097656 5.75 -1.328125 C 6.113281 -1.554688 6.390625 -1.914062 6.578125 -2.40625 C 6.765625 -2.90625 6.859375 -3.535156 6.859375 -4.296875 C 6.859375 -5.085938 6.757812 -5.734375 6.5625 -6.234375 C 6.375 -6.734375 6.101562 -7.101562 5.75 -7.34375 C 5.394531 -7.582031 4.96875 -7.703125 4.46875 -7.703125 C 3.96875 -7.703125 3.535156 -7.582031 3.171875 -7.34375 C 2.804688 -7.101562 2.523438 -6.734375 2.328125 -6.234375 C 2.140625 -5.734375 2.046875 -5.085938 2.046875 -4.296875 C 2.046875 -3.523438 2.140625 -2.894531 2.328125 -2.40625 C 2.523438 -1.914062 2.804688 -1.554688 3.171875 -1.328125 C 3.535156 -1.097656 3.96875 -0.984375 4.46875 -0.984375 Z M 4.46875 -0.984375 "/></g></g></g><g fill="#000000" fill-opacity="1"><g transform="translate(187.378822, 252.214011)"><g><path d="M 6.75 -8.671875 L 8.046875 -8.671875 L 8.046875 0 L 6.890625 0 L 2.375 -6.609375 L 2.375 0 L 1.09375 0 L 1.09375 -8.671875 L 2.34375 -8.671875 L 6.75 -2.203125 Z M 6.75 -8.671875 "/></g></g></g><g fill="#000000" fill-opacity="1"><g transform="translate(196.507991, 252.214011)"><g/></g></g><g fill="#000000" fill-opacity="1"><g transform="translate(199.211372, 252.214011)"><g><path d="M 1.09375 0 L 1.09375 -8.671875 L 2.90625 -8.671875 L 5.359375 -1.78125 L 7.828125 -8.671875 L 9.625 -8.671875 L 9.625 0 L 8.3125 0 L 8.3125 -6.90625 L 5.921875 0 L 4.796875 0 L 2.40625 -6.859375 L 2.40625 0 Z M 1.09375 0 "/></g></g></g><g fill="#000000" fill-opacity="1"><g transform="translate(209.929003, 252.214011)"><g><path d="M 0.453125 0 L 3.578125 -8.671875 L 5 -8.671875 L 8.125 0 L 6.828125 0 L 6.015625 -2.28125 L 2.59375 -2.28125 L 1.75 0 Z M 2.890625 -3.4375 L 5.6875 -3.4375 L 4.296875 -7.421875 Z M 2.890625 -3.4375 "/></g></g></g><g fill="#000000" fill-opacity="1"><g transform="translate(217.625257, 252.214011)"><g><path d="M 0.265625 -7.5 L 0.265625 -8.671875 L 6.9375 -8.671875 L 6.9375 -7.5 L 4.3125 -7.5 L 4.3125 0 L 3.015625 0 L 3.015625 -7.5 Z M 0.265625 -7.5 "/></g></g></g><g fill="#000000" fill-opacity="1"><g transform="translate(224.746343, 252.214011)"><g><path d="M 4.375 -8.796875 C 5 -8.796875 5.550781 -8.664062 6.03125 -8.40625 C 6.519531 -8.15625 6.910156 -7.8125 7.203125 -7.375 C 7.503906 -6.945312 7.679688 -6.472656 7.734375 -5.953125 L 6.359375 -5.953125 C 6.304688 -6.273438 6.191406 -6.566406 6.015625 -6.828125 C 5.847656 -7.097656 5.625 -7.3125 5.34375 -7.46875 C 5.0625 -7.625 4.726562 -7.703125 4.34375 -7.703125 C 3.851562 -7.703125 3.4375 -7.582031 3.09375 -7.34375 C 2.75 -7.113281 2.488281 -6.753906 2.3125 -6.265625 C 2.132812 -5.773438 2.046875 -5.140625 2.046875 -4.359375 C 2.046875 -3.191406 2.242188 -2.335938 2.640625 -1.796875 C 3.035156 -1.253906 3.601562 -0.984375 4.34375 -0.984375 C 4.726562 -0.984375 5.0625 -1.0625 5.34375 -1.21875 C 5.625 -1.382812 5.847656 -1.609375 6.015625 -1.890625 C 6.191406 -2.171875 6.304688 -2.472656 6.359375 -2.796875 L 7.734375 -2.796875 C 7.679688 -2.421875 7.578125 -2.054688 7.421875 -1.703125 C 7.273438 -1.359375 7.066406 -1.046875 6.796875 -0.765625 C 6.523438 -0.492188 6.191406 -0.273438 5.796875 -0.109375 C 5.398438 0.046875 4.925781 0.125 4.375 0.125 C 3.59375 0.125 2.921875 -0.0546875 2.359375 -0.421875 C 1.804688 -0.785156 1.378906 -1.300781 1.078125 -1.96875 C 0.773438 -2.632812 0.625 -3.4375 0.625 -4.375 C 0.625 -5.3125 0.769531 -6.109375 1.0625 -6.765625 C 1.363281 -7.421875 1.796875 -7.921875 2.359375 -8.265625 C 2.921875 -8.617188 3.59375 -8.796875 4.375 -8.796875 Z M 4.375 -8.796875 "/></g></g></g><g fill="#000000" fill-opacity="1"><g transform="translate(233.096261, 252.214011)"><g><path d="M 6.828125 -3.921875 L 2.375 -3.921875 L 2.375 0 L 1.09375 0 L 1.09375 -8.671875 L 2.375 -8.671875 L 2.375 -5.046875 L 6.828125 -5.046875 L 6.828125 -8.671875 L 8.109375 -8.671875 L 8.109375 0 L 6.828125 0 Z M 6.828125 -3.921875 "/></g></g></g><g fill="#000000" fill-opacity="1"><g transform="translate(242.291359, 252.214011)"><g><path d="M 1.09375 -8.671875 L 2.375 -8.671875 L 2.375 0 L 1.09375 0 Z M 1.09375 -8.671875 "/></g></g></g><g fill="#000000" fill-opacity="1"><g transform="translate(245.767994, 252.214011)"><g><path d="M 6.75 -8.671875 L 8.046875 -8.671875 L 8.046875 0 L 6.890625 0 L 2.375 -6.609375 L 2.375 0 L 1.09375 0 L 1.09375 -8.671875 L 2.34375 -8.671875 L 6.75 -2.203125 Z M 6.75 -8.671875 "/></g></g></g><g fill="#000000" fill-opacity="1"><g transform="translate(254.897163, 252.214011)"><g><path d="M 4.375 0.125 C 3.601562 0.125 2.9375 -0.0507812 2.375 -0.40625 C 1.8125 -0.757812 1.378906 -1.265625 1.078125 -1.921875 C 0.773438 -2.585938 0.625 -3.382812 0.625 -4.3125 C 0.625 -5.25 0.78125 -6.050781 1.09375 -6.71875 C 1.40625 -7.394531 1.847656 -7.910156 2.421875 -8.265625 C 2.992188 -8.617188 3.664062 -8.796875 4.4375 -8.796875 C 4.894531 -8.796875 5.320312 -8.71875 5.71875 -8.5625 C 6.113281 -8.40625 6.460938 -8.191406 6.765625 -7.921875 C 7.066406 -7.660156 7.300781 -7.359375 7.46875 -7.015625 C 7.644531 -6.671875 7.75 -6.316406 7.78125 -5.953125 L 6.40625 -5.953125 C 6.351562 -6.253906 6.234375 -6.535156 6.046875 -6.796875 C 5.867188 -7.054688 5.640625 -7.265625 5.359375 -7.421875 C 5.078125 -7.585938 4.757812 -7.671875 4.40625 -7.671875 C 3.9375 -7.671875 3.519531 -7.554688 3.15625 -7.328125 C 2.800781 -7.097656 2.519531 -6.738281 2.3125 -6.25 C 2.113281 -5.757812 2.015625 -5.125 2.015625 -4.34375 C 2.015625 -3.738281 2.078125 -3.222656 2.203125 -2.796875 C 2.335938 -2.378906 2.515625 -2.039062 2.734375 -1.78125 C 2.953125 -1.519531 3.207031 -1.328125 3.5 -1.203125 C 3.800781 -1.085938 4.117188 -1.03125 4.453125 -1.03125 C 4.785156 -1.03125 5.078125 -1.085938 5.328125 -1.203125 C 5.578125 -1.316406 5.785156 -1.46875 5.953125 -1.65625 C 6.128906 -1.84375 6.265625 -2.039062 6.359375 -2.25 C 6.453125 -2.46875 6.503906 -2.675781 6.515625 -2.875 L 6.5625 -3.578125 L 4.53125 -3.578125 L 4.53125 -4.5 L 7.90625 -4.484375 L 7.90625 0 L 6.96875 0 L 6.96875 -1.265625 C 6.820312 -1.035156 6.632812 -0.8125 6.40625 -0.59375 C 6.175781 -0.382812 5.894531 -0.210938 5.5625 -0.078125 C 5.226562 0.0546875 4.832031 0.125 4.375 0.125 Z M 4.375 0.125 "/></g></g></g></svg>